.
 
http://www.scenetime.com    -   SceneTime [ We been having it ] !!!


How come you press harder on a remote control when you know the battery is dead? so you better seed to get speed ;)

        Seed back for speed


...................................NFO:.................................................








































          
          
              
              
                    
                    
                    
                    

Final.Destination.5.2011.TS.Xvid-SiC

Poster:
[img]http://img545.imageshack.us/img545/526/mv5bmtgyotexndc1m15bml5.jpg[/img]

IMDB Link:
http://www.imdb.com/title/tt1622979/

Description:
Survivors of a suspension-bridge collapse learn there's no way you can cheat 
Death. 

MediaInfo:
General
Complete name                    : Final.Destination.5.2011.TS.Xvid-SiC.avi
Format                           : AVI
Format/Info                      : Audio Video Interleave
File size                        : 1.29 GiB
Duration                         : 1h 26mn
Overall bit rate                 : 2 149 Kbps

Video
ID                               : 0
Format                           : MPEG-4 Visual
Format profile                   : Advanced Simple@L5
Format settings, BVOP            : Yes
Format settings, QPel            : No
Format settings, GMC             : No warppoints
Format settings, Matrix          : Default (H.263)
Muxing mode                      : Packed bitstream
Codec ID                         : XVID
Codec ID/Hint                    : XviD
Duration                         : 1h 26mn
Bit rate                         : 2 012 Kbps
Width                            : 720 pixels
Height                           : 256 pixels
Display aspect ratio             : 2.813
Frame rate                       : 29.970 fps
Resolution                       : 8 bits
Colorimetry                      : 4:2:0
Scan type                        : Progressive
Bits/(Pixel*Frame)               : 0.364
Stream size                      : 1.21 GiB (94%)
Writing library                  : XviD 64

Audio
ID                               : 1
Format                           : AC-3
Format/Info                      : Audio Coding 3
Format_Settings_ModeExtension    : CM (complete main)
Codec ID                         : 2000
Duration                         : 1h 26mn
Bit rate mode                    : Constant
Bit rate                         : 128 Kbps
Channel(s)                       : 2 channels
Channel positions                : Front: L R
Sampling rate                    : 44.1 KHz
Stream size                      : 79.0 MiB (6%)
Alignment                        : Aligned on interleaves
Interleave, duration             : 70 ms (2.09 video frames)
Interleave, preload duration     : 208 ms
Title                            : 2ch English

Screenshots:
[img]http://img695.imageshack.us/img695/4228/fd5muxed1avisnapshot005.png[/img]
[img]http://img98.imageshack.us/img98/4228/fd5muxed1avisnapshot005.png[/img]
[img]http://img651.imageshack.us/img651/6782/finaldestination52011ts.png[/img]
[img]http://img14.imageshack.us/img14/6782/finaldestination52011ts.png[/img]
[img]http://img5.imageshack.us/img5/656/vlcsnap2011081704h45m38.png[/img]
[img]http://img40.imageshack.us/img40/6999/vlcsnap2011081704h45m10.png[/img]
[img]http://img854.imageshack.us/img854/5786/vlcsnap2011081704h44m15.png[/img]


Note :   Cropped the black bars of,did a few ajustments color,sharpen ect

Source : SCR0N-Thanks!!!

Encoder: Bezauk

Enjoy!

Respects to CaptainHomey, Cyanide, CM8, Rx, THC, ELEKTRI4KA, 
Killerhz, PA, YeFsTe, BoxSlots, MrRep and everyone in the struggle...